<svg width="26" height="24" viewBox="0 0 26 24" fill="none" xmlns="http://www.w3.org/2000/svg">
<path d="M13 1.81128C18.4767 -1.25998 23.9058 0.221547 25.6875 1.54468C25.899 1.7018 26 1.95891 26 2.22241V21.7322C25.9997 22.1044 25.6046 22.3478 25.2607 22.2048C20.2296 20.1137 14.5488 22.0614 13 23.364C11.4512 22.0614 5.7704 20.1137 0.739258 22.2048C0.39542 22.3478 0.000322012 22.1044 0 21.7322V2.22241C4.8376e-05 1.95891 0.100972 1.7018 0.3125 1.54468C2.09417 0.221547 7.52327 -1.25998 13 1.81128ZM15.7578 6.47144C15.5341 6.47145 15.3052 6.48488 15.0713 6.51343C14.8475 6.54199 14.6793 6.5708 14.5674 6.59937C14.5674 8.39725 14.5171 8.96236 14.6592 10.7566L14.583 10.7703L12.248 7.38452C12.2677 7.413 11.7698 6.74734 11.4238 6.64233C11.0881 6.52811 10.7318 6.47147 10.3555 6.47144C10.0197 6.47144 9.0402 6.5188 8.74512 6.61401C8.45026 6.70918 8.23131 6.8515 8.08887 7.04175V14.1833C8.08887 14.4214 8.11961 14.617 8.18066 14.7693C8.24169 14.9119 8.32768 15.0265 8.43945 15.1121C8.55136 15.1977 8.69425 15.2544 8.86719 15.283C9.04012 15.3115 9.90183 15.3259 10.126 15.3259C10.3498 15.3259 10.574 15.3115 10.7979 15.283C11.0317 15.2544 11.2045 15.2256 11.3164 15.197C11.3164 13.4151 11.381 12.8618 11.2402 11.0837C11.2529 11.123 13.6523 14.4548 13.6523 14.4548C13.6641 14.4705 14.1449 15.1082 14.4766 15.2117C14.8122 15.3163 15.1686 15.3689 15.5449 15.3689C15.9217 15.3689 16.9054 15.3308 17.1699 15.2546C17.4446 15.188 17.6535 15.0881 17.7959 14.9548V7.61304C17.7958 7.14676 17.6783 6.84175 17.4443 6.69897C17.2097 6.54678 16.2053 6.47144 15.7578 6.47144Z" fill="white"/>
</svg>
