<svg width="31" height="11" viewBox="0 0 31 11" fill="none" xmlns="http://www.w3.org/2000/svg">
<path d="M7.284 6.348V1.104C7.284 0.792 7.384 0.544 7.584 0.36C7.792 0.176 8.048 0.0839996 8.352 0.0839996C8.656 0.0839996 8.908 0.176 9.108 0.36C9.316 0.544 9.42 0.792 9.42 1.104V9.432C9.42 9.584 9.388 9.72 9.324 9.84C9.268 9.968 9.192 10.072 9.096 10.152C9 10.24 8.888 10.308 8.76 10.356C8.632 10.404 8.5 10.428 8.364 10.428C8.156 10.428 7.98 10.392 7.836 10.32C7.692 10.248 7.572 10.148 7.476 10.02L2.976 4.152V9.408C2.976 9.72 2.872 9.968 2.664 10.152C2.464 10.336 2.212 10.428 1.908 10.428C1.604 10.428 1.348 10.336 1.14 10.152C0.94 9.968 0.84 9.72 0.84 9.408V1.104C0.84 0.784 0.948 0.536 1.164 0.36C1.38 0.176 1.62 0.0839996 1.884 0.0839996C2.124 0.0839996 2.308 0.124 2.436 0.204C2.572 0.276 2.692 0.38 2.796 0.516L7.284 6.348ZM13.0016 4.296H17.2136C17.4696 4.296 17.6776 4.392 17.8376 4.584C17.9976 4.776 18.0776 4.996 18.0776 5.244C18.0776 5.484 17.9976 5.704 17.8376 5.904C17.6776 6.096 17.4696 6.192 17.2136 6.192H13.0016V8.352H17.6336C17.8896 8.352 18.0976 8.452 18.2576 8.652C18.4176 8.844 18.4976 9.064 18.4976 9.312C18.4976 9.552 18.4176 9.772 18.2576 9.972C18.0976 10.172 17.8896 10.272 17.6336 10.272H12.0656C11.7056 10.272 11.4136 10.16 11.1896 9.936C10.9736 9.72 10.8656 9.432 10.8656 9.072V1.44C10.8656 1.08 10.9736 0.792 11.1896 0.576C11.4136 0.352 11.7056 0.24 12.0656 0.24H17.3696C17.6256 0.24 17.8336 0.34 17.9936 0.539999C18.1536 0.731999 18.2336 0.951999 18.2336 1.2C18.2336 1.44 18.1536 1.66 17.9936 1.86C17.8336 2.06 17.6256 2.16 17.3696 2.16H13.0016V4.296ZM26.7758 6.216L28.1438 0.9C28.2158 0.612 28.3718 0.4 28.6118 0.263999C28.8598 0.119999 29.1278 0.0799994 29.4158 0.144C29.5758 0.184 29.7118 0.247999 29.8238 0.335999C29.9438 0.424 30.0358 0.528 30.0998 0.648C30.1638 0.76 30.1998 0.888 30.2078 1.032C30.2238 1.168 30.2158 1.3 30.1838 1.428L27.8438 9.708C27.7798 9.94 27.6558 10.12 27.4718 10.248C27.2958 10.384 27.0998 10.452 26.8838 10.452C26.6678 10.452 26.4758 10.388 26.3078 10.26C26.1398 10.14 26.0158 9.956 25.9358 9.708L24.4118 4.704L22.9598 9.696C22.8878 9.952 22.7638 10.14 22.5878 10.26C22.4198 10.388 22.2278 10.452 22.0118 10.452C21.7958 10.452 21.5958 10.384 21.4118 10.248C21.2358 10.12 21.1158 9.94 21.0518 9.708L18.6398 1.428C18.5998 1.3 18.5878 1.168 18.6038 1.032C18.6198 0.895999 18.6598 0.767999 18.7238 0.648C18.7878 0.528 18.8758 0.424 18.9878 0.335999C19.1078 0.247999 19.2478 0.184 19.4078 0.144C19.6958 0.0799994 19.9598 0.115999 20.1998 0.252C20.4478 0.388 20.6078 0.604 20.6798 0.9L22.0358 6.216L23.3678 1.752C23.4398 1.504 23.5718 1.312 23.7638 1.176C23.9638 1.032 24.1798 0.96 24.4118 0.96C24.6438 0.96 24.8518 1.028 25.0358 1.164C25.2278 1.3 25.3638 1.496 25.4438 1.752L26.7758 6.216Z" fill="white"/>
</svg>
