<svg id="eGTRKnvbVCO1" xmlns="http://www.w3.org/2000/svg" xmlns:xlink="http://www.w3.org/1999/xlink" viewBox="0 0 34 34" shape-rendering="geometricPrecision" text-rendering="geometricPrecision" project-id="50966f6f6cc643208fc67a68a221aad1" export-id="ba7ab3e0db7b415481f58a34a8e4621f" cached="true">
<style><![CDATA[
#eGTRKnvbVCO3 {animation: eGTRKnvbVCO3_f_p 12000ms linear infinite normal forwards}@keyframes eGTRKnvbVCO3_f_p { 0% {fill: #ab6fff} 25% {fill: #00aeef} 50% {fill: #00ef9f} 75% {fill: #ff53dd} 100% {fill: #ab6fff}} #eGTRKnvbVCO4-fill-0 {animation: eGTRKnvbVCO4-fill-0__c 12000ms linear infinite normal forwards}@keyframes eGTRKnvbVCO4-fill-0__c { 0% {stop-color: rgba(249,239,106,0)} 25% {stop-color: rgba(0,239,159,0)} 50% {stop-color: rgba(239,207,0,0)} 100% {stop-color: rgba(239,207,0,0)}} #eGTRKnvbVCO4-fill-1 {animation: eGTRKnvbVCO4-fill-1__c 12000ms linear infinite normal forwards}@keyframes eGTRKnvbVCO4-fill-1__c { 0% {stop-color: #008eff} 25% {stop-color: #00ef9f} 50% {stop-color: #efcf00} 100% {stop-color: #efcf00}} #eGTRKnvbVCO4 {animation: eGTRKnvbVCO4_f_p 12000ms linear infinite normal forwards}@keyframes eGTRKnvbVCO4_f_p { 0% {fill: url(#eGTRKnvbVCO4-fill)} 25% {fill: url(#eGTRKnvbVCO4-fill)} 50% {fill: url(#eGTRKnvbVCO4-fill)} 75% {fill: url(#eGTRKnvbVCO4-fill-g1)} 100% {fill: url(#eGTRKnvbVCO4-fill-g2)}}
]]></style>
<defs><linearGradient id="eGTRKnvbVCO4-fill" x1="0" y1="0" x2="1" y2="0" spreadMethod="pad" gradientUnits="objectBoundingBox" gradientTransform="matrix(0.713646 0.833354 -0.833354 0.713646 0.255625 0.146801)"><stop id="eGTRKnvbVCO4-fill-0" offset="0%" stop-color="rgba(249,239,106,0)"/><stop id="eGTRKnvbVCO4-fill-1" offset="100%" stop-color="#008eff"/></linearGradient><linearGradient id="eGTRKnvbVCO4-fill-g1" x1="0.255625" y1="0.146801" x2="0.969271" y2="0.980155" spreadMethod="pad" gradientUnits="objectBoundingBox" gradientTransform="translate(0 0)"><stop id="eGTRKnvbVCO4-fill-g1-0" offset="2%" stop-color="rgba(171,111,255,0)"/><stop id="eGTRKnvbVCO4-fill-g1-1" offset="100%" stop-color="#ab6fff"/></linearGradient><linearGradient id="eGTRKnvbVCO4-fill-g2" x1="0.255625" y1="0.146801" x2="0.969271" y2="0.980155" spreadMethod="pad" gradientUnits="objectBoundingBox" gradientTransform="translate(0 0)"><stop id="eGTRKnvbVCO4-fill-g2-0" offset="0%" stop-color="rgba(249,239,106,0)"/><stop id="eGTRKnvbVCO4-fill-g2-1" offset="100%" stop-color="#008eff"/></linearGradient></defs><g transform="translate(2.5 2.599672)"><path id="eGTRKnvbVCO3" d="M12.6581,1.43265c1.0834-.842656,2.6004-.842655,3.6838,0l9.5,7.38931C26.5726,9.39033,27,10.2642,27,11.19L27,26c0,1.1046-.8954,2-2,2h-21c-1.10457,0-2-.8954-2-2v-14.81c0-.9258.42739-1.79967,1.15811-2.36804L12.6581,1.43265Z" fill="#ab6fff"/><path id="eGTRKnvbVCO4" d="M12.6581,1.43265c1.0834-.842656,2.6004-.842655,3.6838,0l9.5,7.38931C26.5726,9.39033,27,10.2642,27,11.19L27,26c0,1.1046-.8954,2-2,2h-21c-1.10457,0-2-.8954-2-2v-14.81c0-.9258.42739-1.79967,1.15811-2.36804L12.6581,1.43265Z" fill="url(#eGTRKnvbVCO4-fill)"/><path d="M14.5,22.9091v-10.4095c-3.025-1.6963-6.02487-.9853-7.17708-.2518C7.10056,12.3893,7,12.6475,7,12.9111v8.7125c0,.3725.39594.6178.74697.4931c2.81913-1.0012,5.89233.0684,6.75303.7924Z" fill="#fff"/><path d="M14.5,22.9091v-10.4095c3.025-1.6963,6.0249-.9853,7.1771-.2518.2223.1415.3229.3997.3229.6633v8.7125c0,.3725-.3959.6178-.747.4931-2.8191-1.0012-5.8923.0684-6.753.7924Z" fill="#fff"/><path d="M9.36893,5.97366c.42862-.34825,1.05897-.28309,1.40727.14551s.283,1.05896-.1456,1.40723l-3.99995,3.25c-.42863.3483-1.05896.2831-1.40723-.1455s-.28309-1.05896.14551-1.40724l4-3.25Zm3.99997-3.25c.4287-.34825,1.059-.28309,1.4073.14551s.283,1.05896-.1456,1.40723l-2,1.625c-.4286.34826-1.0589.28309-1.4072-.14551s-.2831-1.05895.1455-1.40723l2-1.625Z" fill="#fff" fill-opacity="0.6"/></g></svg>
